# Blender v2.93.1 OBJ File: ''
# www.blender.org
mtllib arc.mtl
o Cylinder_Cylinder.001
v 0.000000 -0.621504 -3.000000
v 0.000000 0.621504 -3.000000
v 0.585271 -0.621504 -2.942356
v 0.585271 0.621504 -2.942356
v 1.148050 -0.621504 -2.771638
v 1.148050 0.621504 -2.771638
v 1.666711 -0.621504 -2.494409
v 1.666711 0.621504 -2.494409
v 2.121320 -0.621504 -2.121320
v 2.121320 0.621504 -2.121320
v 2.494409 -0.621504 -1.666711
v 2.494409 0.621504 -1.666711
v 2.771638 -0.621504 -1.148050
v 2.771638 0.621504 -1.148050
v 2.942356 -0.621504 -0.585271
v 2.942356 0.621504 -0.585271
v 3.000000 -0.621504 0.000000
v 3.000000 0.621504 0.000000
v -0.018130 -0.621504 -2.815923
v -0.018130 0.621504 -2.815923
v 0.549186 -0.621504 -2.760942
v 0.549186 0.621504 -2.760942
v 1.077266 -0.621504 -2.600751
v 1.077266 0.621504 -2.600751
v 1.563948 -0.621504 -2.340614
v 1.563948 0.621504 -2.340614
v 1.990529 -0.621504 -1.990529
v 1.990529 0.621504 -1.990529
v 2.340614 -0.621504 -1.563948
v 2.340614 0.621504 -1.563948
v 2.600751 -0.621504 -1.077266
v 2.600751 0.621504 -1.077266
v 2.760942 -0.621504 -0.549186
v 2.760942 0.621504 -0.549186
v 2.815923 -0.621504 0.018130
v 2.815923 0.621504 0.018130
vt 1.000000 0.000000
vt 0.968750 0.000000
vt 0.968750 1.000000
vt 1.000000 1.000000
vt 0.937500 0.000000
vt 0.937500 1.000000
vt 0.906250 0.000000
vt 0.906250 1.000000
vt 0.875000 0.000000
vt 0.875000 1.000000
vt 0.843750 0.000000
vt 0.843750 1.000000
vt 0.812500 0.000000
vt 0.812500 1.000000
vt 0.781250 0.000000
vt 0.781250 1.000000
vt 0.750000 0.000000
vt 0.750000 1.000000
vt 1.000000 0.000000
vt 1.000000 1.000000
vt 0.968750 1.000000
vt 0.968750 0.000000
vt 0.937500 1.000000
vt 0.937500 0.000000
vt 0.906250 1.000000
vt 0.906250 0.000000
vt 0.875000 1.000000
vt 0.875000 0.000000
vt 0.843750 1.000000
vt 0.843750 0.000000
vt 0.812500 1.000000
vt 0.812500 0.000000
vt 0.781250 1.000000
vt 0.781250 0.000000
vt 0.750000 1.000000
vt 0.750000 0.000000
vn -0.0980 0.0000 0.9952
vn -0.2903 0.0000 0.9569
vn -0.4714 0.0000 0.8819
vn -0.6344 0.0000 0.7730
vn -0.7730 0.0000 0.6344
vn -0.8819 0.0000 0.4714
vn -0.9569 0.0000 0.2903
vn -0.9952 0.0000 0.0980
vn 0.0965 0.0000 -0.9953
vn 0.2903 0.0000 -0.9569
vn 0.4714 0.0000 -0.8819
vn 0.6344 0.0000 -0.7730
vn 0.7730 0.0000 -0.6344
vn 0.8819 0.0000 -0.4714
vn 0.9569 0.0000 -0.2903
vn 0.9953 0.0000 -0.0965
vn 0.0000 1.0000 0.0000
vn 0.0000 -1.0000 0.0000
vn 0.9952 0.0000 0.0980
vn -0.0980 0.0000 -0.9952
usemtl None
s off
f 1/1/1 3/2/1 4/3/1 2/4/1
f 3/2/2 5/5/2 6/6/2 4/3/2
f 5/5/3 7/7/3 8/8/3 6/6/3
f 7/7/4 9/9/4 10/10/4 8/8/4
f 9/9/5 11/11/5 12/12/5 10/10/5
f 11/11/6 13/13/6 14/14/6 12/12/6
f 13/13/7 15/15/7 16/16/7 14/14/7
f 15/15/8 17/17/8 18/18/8 16/16/8
f 19/19/9 20/20/9 22/21/9 21/22/9
f 21/22/10 22/21/10 24/23/10 23/24/10
f 23/24/11 24/23/11 26/25/11 25/26/11
f 25/26/12 26/25/12 28/27/12 27/28/12
f 27/28/13 28/27/13 30/29/13 29/30/13
f 29/30/14 30/29/14 32/31/14 31/32/14
f 31/32/15 32/31/15 34/33/15 33/34/15
f 33/34/16 34/33/16 36/35/16 35/36/16
f 5/5/17 3/2/17 21/22/17 23/24/17
f 15/15/17 13/13/17 31/32/17 33/34/17
f 4/3/18 6/6/18 24/23/18 22/21/18
f 14/14/18 16/16/18 34/33/18 32/31/18
f 11/11/17 9/9/17 27/28/17 29/30/17
f 10/10/18 12/12/18 30/29/18 28/27/18
f 7/7/17 5/5/17 23/24/17 25/26/17
f 17/17/17 15/15/17 33/34/17 35/36/17
f 3/2/17 1/1/17 19/19/17 21/22/17
f 6/6/18 8/8/18 26/25/18 24/23/18
f 16/16/18 18/18/18 36/35/18 34/33/18
f 1/1/19 2/4/19 20/20/19 19/19/19
f 13/13/17 11/11/17 29/30/17 31/32/17
f 18/18/20 17/17/20 35/36/20 36/35/20
f 2/4/18 4/3/18 22/21/18 20/20/18
f 12/12/18 14/14/18 32/31/18 30/29/18
f 9/9/17 7/7/17 25/26/17 27/28/17
f 8/8/18 10/10/18 28/27/18 26/25/18
